<?xml version="1.0" encoding="UTF-8" ?>
<!DOCTYPE svg PUBLIC "-//W3C//DTD SVG 1.1//EN" "http://www.w3.org/Graphics/SVG/1.1/DTD/svg11.dtd">
<svg width="46pt" height="126pt" viewBox="0 0 46 126" version="1.1" xmlns="http://www.w3.org/2000/svg">
<g id="#f4f4f4ff">
<path fill="#f4f4f4" opacity="1.00" d=" M 37.76 0.00 L 38.96 0.00 C 39.07 12.86 38.99 25.72 39.00 38.58 C 36.02 38.30 33.09 37.66 30.29 36.57 C 22.50 52.88 22.56 72.73 30.35 89.03 C 33.11 87.93 36.02 87.29 38.98 87.05 C 39.02 99.95 39.03 112.85 38.97 125.75 C 28.24 125.52 19.11 118.30 13.30 109.77 C 3.88 95.81 0.26 78.65 0.33 62.01 C 0.52 46.04 4.07 29.62 13.04 16.20 C 18.59 7.78 27.33 0.61 37.76 0.00 Z" />
<path fill="#f4f4f4" opacity="1.00" d=" M 41.24 1.03 C 42.73 -0.95 46.05 0.58 45.45 3.03 C 45.40 14.36 45.63 25.70 45.34 37.02 C 44.59 39.58 40.40 38.66 40.89 36.00 C 41.06 24.36 40.37 12.60 41.24 1.03 Z" />
<path fill="#f4f4f4" opacity="1.00" d=" M 41.70 87.65 C 43.27 86.20 45.87 87.86 45.45 89.91 C 45.50 100.27 45.43 110.64 45.48 121.01 C 45.41 122.58 45.80 124.67 44.01 125.49 C 42.44 125.99 40.65 124.77 40.89 123.05 C 40.78 112.71 40.91 102.36 40.84 92.02 C 41.03 90.60 40.41 88.68 41.70 87.65 Z" />
</g>
</svg>
